<?xml version="1.0" encoding="UTF-8"?><!DOCTYPE svg PUBLIC "-//W3C//DTD SVG 1.1//EN" "http://www.w3.org/Graphics/SVG/1.1/DTD/svg11.dtd"><svg xmlns="http://www.w3.org/2000/svg" xmlns:xlink="http://www.w3.org/1999/xlink"><defs><style>.cls-1{fill:#fff;fill-rule:evenodd;}</style></defs><symbol id="sp-behance" viewBox="0 0 576 512"><path fill="currentColor" d="M232 237.2c31.8-15.2 48.4-38.2 48.4-74 0-70.6-52.6-87.8-113.3-87.8H0v354.4h171.8c64.4 0 124.9-30.9 124.9-102.9 0-44.5-21.1-77.4-64.7-89.7zM77.9 135.9H151c28.1 0 53.4 7.9 53.4 40.5 0 30.1-19.7 42.2-47.5 42.2h-79v-82.7zm83.3 233.7H77.9V272h84.9c34.3 0 56 14.3 56 50.6 0 35.8-25.9 47-57.6 47zm358.5-240.7H376V94h143.7v34.9zM576 305.2c0-75.9-44.4-139.2-124.9-139.2-78.2 0-131.3 58.8-131.3 135.8 0 79.9 50.3 134.7 131.3 134.7 61.3 0 101-27.6 120.1-86.3H509c-6.7 21.9-34.3 33.5-55.7 33.5-41.3 0-63-24.2-63-65.3h185.1c.3-4.2.6-8.7.6-13.2zM390.4 274c2.3-33.7 24.7-54.8 58.5-54.8 35.4 0 53.2 20.8 56.2 54.8H390.4z"/></symbol><symbol id="sp-close" viewBox="0 0 20 20"><path d="M14.3 14.8c-.4.5-1.2.5-1.6 0l-2.7-3-2.7 3c-.4.5-1.2.5-1.6 0-.5-.4-.5-1.2 0-1.6L8.4 10 5.7 6.8c-.5-.4-.5-1.2 0-1.6.4-.5 1.2-.5 1.6 0l2.7 3 2.7-3c.4-.5 1.2-.5 1.6 0 .5.4.5 1.2 0 1.6L11.6 10l2.7 3.2c.5.4.5 1.2 0 1.6z"/></symbol><symbol id="sp-facebook" viewBox="0 0 320 512"><path fill="currentColor" d="M279.14 288l14.22-92.66h-88.91v-60.13c0-25.35 12.42-50.06 52.24-50.06h40.42V6.26S260.43 0 225.36 0c-73.22 0-121.08 44.38-121.08 124.72v70.62H22.89V288h81.39v224h100.17V288z"/></symbol><symbol id="sp-github" viewBox="0 0 496 512"><path fill="currentColor" d="M165.9 397.4c0 2-2.3 3.6-5.2 3.6-3.3.3-5.6-1.3-5.6-3.6 0-2 2.3-3.6 5.2-3.6 3-.3 5.6 1.3 5.6 3.6zm-31.1-4.5c-.7 2 1.3 4.3 4.3 4.9 2.6 1 5.6 0 6.2-2s-1.3-4.3-4.3-5.2c-2.6-.7-5.5.3-6.2 2.3zm44.2-1.7c-2.9.7-4.9 2.6-4.6 4.9.3 2 2.9 3.3 5.9 2.6 2.9-.7 4.9-2.6 4.6-4.6-.3-1.9-3-3.2-5.9-2.9zM244.8 8C106.1 8 0 113.3 0 252c0 110.9 69.8 205.8 169.5 239.2 12.8 2.3 17.3-5.6 17.3-12.1 0-6.2-.3-40.4-.3-61.4 0 0-70 15-84.7-29.8 0 0-11.4-29.1-27.8-36.6 0 0-22.9-15.7 1.6-15.4 0 0 24.9 2 38.6 25.8 21.9 38.6 58.6 27.5 72.9 20.9 2.3-16 8.8-27.1 16-33.7-55.9-6.2-112.3-14.3-112.3-110.5 0-27.5 7.6-41.3 23.6-58.9-2.6-6.5-11.1-33.3 2.6-67.9 20.9-6.5 69 27 69 27 20-5.6 41.5-8.5 62.8-8.5s42.8 2.9 62.8 8.5c0 0 48.1-33.6 69-27 13.7 34.7 5.2 61.4 2.6 67.9 16 17.7 25.8 31.5 25.8 58.9 0 96.5-58.9 104.2-114.8 110.5 9.2 7.9 17 22.9 17 46.4 0 33.7-.3 75.4-.3 83.6 0 6.5 4.6 14.4 17.3 12.1C428.2 457.8 496 362.9 496 252 496 113.3 383.5 8 244.8 8zM97.2 352.9c-1.3 1-1 3.3.7 5.2 1.6 1.6 3.9 2.3 5.2 1 1.3-1 1-3.3-.7-5.2-1.6-1.6-3.9-2.3-5.2-1zm-10.8-8.1c-.7 1.3.3 2.9 2.3 3.9 1.6 1 3.6.7 4.3-.7.7-1.3-.3-2.9-2.3-3.9-2-.6-3.6-.3-4.3.7zm32.4 35.6c-1.6 1.3-1 4.3 1.3 6.2 2.3 2.3 5.2 2.6 6.5 1 1.3-1.3.7-4.3-1.3-6.2-2.2-2.3-5.2-2.6-6.5-1zm-11.4-14.7c-1.6 1-1.6 3.6 0 5.9 1.6 2.3 4.3 3.3 5.6 2.3 1.6-1.3 1.6-3.9 0-6.2-1.4-2.3-4-3.3-5.6-2z"/></symbol><symbol id="sp-instagram" viewBox="0 0 448 512"><path fill="currentColor" d="M224.1 141c-63.6 0-114.9 51.3-114.9 114.9s51.3 114.9 114.9 114.9S339 319.5 339 255.9 287.7 141 224.1 141zm0 189.6c-41.1 0-74.7-33.5-74.7-74.7s33.5-74.7 74.7-74.7 74.7 33.5 74.7 74.7-33.6 74.7-74.7 74.7zm146.4-194.3c0 14.9-12 26.8-26.8 26.8-14.9 0-26.8-12-26.8-26.8s12-26.8 26.8-26.8 26.8 12 26.8 26.8zm76.1 27.2c-1.7-35.9-9.9-67.7-36.2-93.9-26.2-26.2-58-34.4-93.9-36.2-37-2.1-147.9-2.1-184.9 0-35.8 1.7-67.6 9.9-93.9 36.1s-34.4 58-36.2 93.9c-2.1 37-2.1 147.9 0 184.9 1.7 35.9 9.9 67.7 36.2 93.9s58 34.4 93.9 36.2c37 2.1 147.9 2.1 184.9 0 35.9-1.7 67.7-9.9 93.9-36.2 26.2-26.2 34.4-58 36.2-93.9 2.1-37 2.1-147.8 0-184.8zM398.8 388c-7.8 19.6-22.9 34.7-42.6 42.6-29.5 11.7-99.5 9-132.1 9s-102.7 2.6-132.1-9c-19.6-7.8-34.7-22.9-42.6-42.6-11.7-29.5-9-99.5-9-132.1s-2.6-102.7 9-132.1c7.8-19.6 22.9-34.7 42.6-42.6 29.5-11.7 99.5-9 132.1-9s102.7-2.6 132.1 9c19.6 7.8 34.7 22.9 42.6 42.6 11.7 29.5 9 99.5 9 132.1s2.7 102.7-9 132.1z"/></symbol><symbol id="sp-linkedin" viewBox="0 0 448 512"><path fill="currentColor" d="M100.28 448H7.4V148.9h92.88zM53.79 108.1C24.09 108.1 0 83.5 0 53.8a53.79 53.79 0 0 1 107.58 0c0 29.7-24.1 54.3-53.79 54.3zM447.9 448h-92.68V302.4c0-34.7-.7-79.2-48.29-79.2-48.29 0-55.69 37.7-55.69 76.7V448h-92.78V148.9h89.08v40.8h1.3c12.4-23.5 42.69-48.3 87.88-48.3 94 0 111.28 61.9 111.28 142.3V448z"/></symbol><symbol id="sp-logo" viewBox="0 0 283.28 241.65"><title>logo white</title><g id="Layer_2" data-name="Layer 2"><g id="Layer_1-2" data-name="Layer 1"><path class="cls-1" d="M210,28c5.52-1.89,10.56-6.47,15.39-10a20.35,20.35,0,0,0,2.43-1.78c.31-.29,1.43-2.15,2.11-1.46.28.28-.32.52-1.3,1.62-3.76,4.26-9.84,9.89-15.72,11.5A7.26,7.26,0,0,1,210,28Z"/><path class="cls-1" d="M259.14,28.48c.27-.06.3.13.32.33-3.65,3.27-11.82,7.82-18.31,8.42-3.41.32-7.23,0-8.75-1.94C243.77,37.61,251.3,31.73,259.14,28.48Z"/><path class="cls-1" d="M38.44,49.87a40.13,40.13,0,0,1-5,4.22A9.36,9.36,0,0,1,38.44,49.87Z"/><path class="cls-1" d="M273.72,50.2c.27-.06.31.12.32.32-4.93,3.66-15.7,3.6-23,2.11C259,52.67,267.62,52.53,273.72,50.2Z"/><path class="cls-1" d="M239.2,107.56a26.08,26.08,0,0,1,4.06,11.66C241.17,116.07,240.56,111.44,239.2,107.56Z"/><path class="cls-1" d="M254.6,117.28c.21-1.83-1.11-3.54-1-5.83,3.1,6,5.48,15.34,3.89,24-1.13-6.38-1.24-13.79-3.41-19.12C254.61,116.29,254.6,116.8,254.6,117.28Z"/><path class="cls-1" d="M16.72,121.33c1.62,2.8.26,6.41-.44,9.28a2.79,2.79,0,0,0-.68,1.44,17.33,17.33,0,0,0-.17,2.36,8.53,8.53,0,0,1-1.18-2c-.16-3.54.67-4.25,2.31-6C16.64,124.81,16.77,123.56,16.72,121.33Z"/><path class="cls-1" d="M245.69,123.76c.13,0,.15.07.16.16,1.43,6.57,1.54,14.33,2.1,22.2-.88,5.93-1.53,11.29-3.56,16.21-.38-1.69.53-3.06.81-4.7a101.27,101.27,0,0,0,1-20.91C246,132,244.76,127.16,245.69,123.76Z"/><path class="cls-1" d="M253.14,124.9a35.91,35.91,0,0,1,1.3,16c-.86-.49-.75-2.31-.81-3.57s-.09-2.67-.17-4.05C253.3,130.41,252.87,127.12,253.14,124.9Z"/><path class="cls-1" d="M214.09,138.67c1.15,6.06.16,14.41-2,19.12.46-5.81,1.06-12.88,1.62-19.12Z"/><path class="cls-1" d="M15.1,140.29c3.41,4.3-.46,12.31,1.3,17.18-1.6-.52-1.56-2.27-2.27-4.06-.25-.63-.75-1.15-.81-1.62-.24-1.9,1.45-3.36,1.78-5.5C15.46,144,14.17,142.4,15.1,140.29Z"/><path class="cls-1" d="M250.87,147.91c.26,0,.28.15.49.16-.53,3.84-.55,8.2-1.62,11.5C249.28,156.12,250.41,151.51,250.87,147.91Z"/><path class="cls-1" d="M17.86,158.92h.49a23.34,23.34,0,0,1,1.29,11.19c-.95-1.39-.36-2.85-1-4.38-.37-.92-1.34-1.5-1.46-2.43C17,161.94,18,160.65,17.86,158.92Z"/><path class="cls-1" d="M208.42,168c.14.07.29.14.32.32a28.45,28.45,0,0,1-5.51,14.1c-.7.93-1.16,2.26-2.27,2.75A121.78,121.78,0,0,0,208.42,168Z"/><path class="cls-1" d="M51.08,191.66a44.14,44.14,0,0,0,7.78,7.61c-1.79.43-3.17-1.36-4.38-2.59s-2.49-2.88-3.4-3.89C51.13,192.29,50.7,192,51.08,191.66Z"/><path class="cls-1" d="M188.16,200.89a.46.46,0,0,1,.33.49c-1.18.28-1,1.94-2.27,2.1-.08-.5.43-.42.48-.8-.54-.07-.69.28-1,.48C185.49,202,187.53,201.72,188.16,200.89Z"/><path class="cls-1" d="M149.11,231.36a3.85,3.85,0,0,1-2.59,1.29A4.44,4.44,0,0,1,149.11,231.36Z"/><path class="cls-1" d="M90,237.51c0-.14.06-.15.16-.16,1.85,0,4.35.66,7.61.81,4.36.2,9.13-.49,12,.65C103.48,239.54,94.91,239.58,90,237.51Z"/><path class="cls-1" d="M185.08,204.62A60.78,60.78,0,0,1,170,217.75c-3.4,2.13-7.18,4.09-10.69,6.64-7.54,5.48-16.83,9-26.74,10.86a137.07,137.07,0,0,1-30,1.94,28,28,0,0,1-5.68-.81c-2.48-.6-6.12-.14-8.58-1-.76.12.16.61-.17.64-.3.29-1.07.12-1.62.17.13.36.57.4.81.65-3.39-.61-7.9-1.5-11-2.92-2.12.22-3.83-.94-5.68-1.78a84.93,84.93,0,0,1-15.23-8.92c-.9-.68-1.69-1.59-2.59-2.27s-2.26-1-2.43-2.26c1.7.55,2.94,2,4.54,2.75.41.21,1,.25,1.45.49,1.14.63,2.16,1.7,3.25,2.43,7.7,5.21,17.36,8.87,28.19,11.34-1.43-1.22-3.56-1.73-6-1.94a80.14,80.14,0,0,0-7.61-3.73c-2.57-1.21-5.14-2.46-7.62-3.73a6.31,6.31,0,0,1-.81-1c-.65-.16-.74.11-1.13-.32-2.65-1.77-5.13-3.61-7.62-5.51s-4.63-4.1-7.45-5.51c-2.75-3.09-4.57-7.1-7.94-9.56-.29,0,.26.76-.16,1-3.79-2.85-5.58-7.71-8.92-11-1.56-4.59-3.94-8.37-6-12.48a9,9,0,0,0-2.11-4.7,90.7,90.7,0,0,1-3.89-19.76c-.21-2.69-.28-6.18,1.3-7.46,1.86,7,.36,14,3.57,19,.42.66,1.22,1,1.62,1.62,1.32,2.09,1.15,5.23,1.94,7.62a32.16,32.16,0,0,0,5.35,8.26,57.55,57.55,0,0,0,10,13.61C53,208.91,62.81,217.33,77,220.66c-.84-1.29-3-2-4.86-3.08s-3.7-2.19-5.51-3.08c-.39-.79-1.4-1-1.78-1.78-5.06-2.94-9-7-13-11-.43,0-.93.06-1.14-.16-4-6-9.13-10.74-12.47-17.34,2.39,1.66,3.94,5.57,6.64,7.46,2.55,5.82,7.84,10.22,13,13.77,2.69,1.86,5.81,2.81,8.75,4.37s5.22,3.61,7.94,5.19h1.3c1.3,1.61,3.42,2.54,5.83,3.56a98.45,98.45,0,0,0,11.18,4.22c3.37,1,6.5,1.86,9.4,1.46-1-1.25-3.13-1-4.86-1.3a23.05,23.05,0,0,1-4.86-1.62c1.24-1.65,3.49.62,5.35-.16.18-.85-1.6-.56-1.14-1.14,8.25,1.48,17.36,2,25-.48.43.27,1,.37,1.45.65.75,0,.49-1,1.14-1.14a2.38,2.38,0,0,1,1.46.49c3.4-1.35,7.72-1.78,10.53-3.73-2.08-.65-4.53.92-6.81,1.13,6.85-3,14.56-5.21,20.26-9.39a3.93,3.93,0,0,0,4.37-1.79c-.95-.51-1.47.8-2.43.81.37-.82,1.48-.89,1.62-1.94.79.08.9-.51,1.62-.49,10.59-6.85,17.68-17.21,25-27.38.35-3,1.48-4.55,2.75-6.81.64.23-.29,1.05-.32,1.62,2.31-1.54,2-4.83,2.91-7.61,2.77-3.6,4.39-10.14,4.06-14.91,0-.6.69-.61,1-1-1.36-1.75-.1-3.51.32-5.19,1.15-4.54.86-10.47.16-14.58-1-5.83-2-12-4.37-16.37.19,1.58.62,2.48.32,4.22a101.68,101.68,0,0,0-12.47-21.23c-.86-1.1-2.1-2.07-3.08-3.24a39.54,39.54,0,0,0-3.08-3.24c-2.16-2-4.29-4.34-6.48-6.16-3.13-2.6-6.75-4.68-9.24-7.94,7.78,3.3,13.06,9.09,19.12,14.1C161.23,76,146.13,67.15,127.4,63.81a95.13,95.13,0,0,0-21.07-1c-6.71.37-14,2-20.09,3.4a90.08,90.08,0,0,0-10.37,2.92,88.19,88.19,0,0,0-9.08,4c-8.93,4.45-16.72,8.72-21.87,16.37,1.86-.56,2.49-2.37,4.37-2.91.21.34-.8,1.56-1.13,1.94-1.69,1.93-4.45,3.76-5.67,6.16,1.6,0,1.59-1.65,3.24-1.62-.36,1.78-2,2.66-2.92,4s-1.29,3.11-2.43,4.53c-1,2.77-3.49,5.55-4.86,9.08a82.81,82.81,0,0,0-2.11,8.26c-.79,3.06-2.46,9.13.25,11.72,0,.3-.23.35-.41.48-1.53,1.08-4,2.3-6.15,1.09-.59-6.62.48-14.22-.81-19.93-1.31,2.06-2.9,4.06-3.25,7.13-.16,1.49.25,3.14,0,4.86-.39,2.79-3.38,4.78-2.38,7.89a2.07,2.07,0,0,1,.13.63,9.55,9.55,0,0,1-.34,1.23c-1.62,4.39,1.19,10.23-1.29,13.58.57-4.6-2.2-8.39-1.62-14.42.24-2.56,1.81-4.71,1.78-7.13,0-1.45-.86-2.75-1-4.21-.46-5.59,2.73-9.57,4.37-14.1-5,5.13-11.6,10-15.56,16.69a22,22,0,0,1-1.45,3.57c-1.45-.11-2.36-1.74-3.44-2.93s-2.54-2.28-2.23-4c.53-3,1.18-4.22,2.53-8.27,3.72-7.26,4.67-15,6.7-23.32C13.39,79.15,17.55,69.68,26.45,64c-1.83,3.25-4.75,5.41-6.81,8.43.45.59.85-1.08,1.3-.49-.86,2.33-2.54,3.84-3.24,6.32a71.61,71.61,0,0,0,5.51-5.51c4.66-4.67,8.89-9.85,13.93-14.42,1.51-1.37,2.77-2.54,4.38-3.89A144.39,144.39,0,0,1,55.78,44a39.1,39.1,0,0,1,15.71-6.16c-6.45,4.4-14.48,7.23-19.6,13,.15.33.62.35,1.13.33-1.16,2.19-3.47,3.23-4.86,5.18,5-3.43,9.83-7,16.37-8.91-.45,2-2.64,2.86-4.22,3.89A113.45,113.45,0,0,0,43.14,64.62c3-2,6.24-4.2,9.56-6.32,3.68-2.36,7.07-4.64,10-6.12s10.64-4.38,15.74-6.85c1.48-.52,2.66-.86,3.73-1.36,5.51-2.65,10.63-3.46,16.36-6.09A62.17,62.17,0,0,0,104.19,35c3.56-2.12,5.62-3.49,7.42-6a20.7,20.7,0,0,0,2.48-3.72c2.36-5.85,2.59-11.14-2.9-15.65-5.72-2.71-13.5-2.25-19.28.16,2.06-4.46,7.7-5.31,12.8-6.32-1-.36-3.08,0-4.54-.16,8.41-5,23.63-3.44,34-1.46,8.46,1.61,16.22,5,22.85,7.78,13,3.42,24.22,12.75,39.86,12.47,1.69,0,2.91-.69,4.22.17,2.8-.71,5.17-1.85,8.1-2.44-.37,2.61-3.89,2.06-5.35,3.57A24.12,24.12,0,0,0,218,17.63c1.26-1,2.06-2.73,3.89-2.92a11,11,0,0,1-2.6,4.21c-2.13,2.21-5,3.45-7.77,5A36.86,36.86,0,0,1,190.75,28c-5.63-.47-10.87-1.88-16.2-2.76a97.2,97.2,0,0,0,18,6.65c10.26,2.91,19.61,7.27,33.54,6.8-1.6,1.38-5.41.67-7.78.49,3.5,2.16,8.39,1.12,13,1.78,2.38.34,3.42,1.26,6.32.65,5.08-1.08,8.86-2.87,13.45-3.89C246.87,43,238,44,229.64,44.85c-6.33.61-12.59-.65-18-1.78.77,1.41,3,1.31,4.7,1.62,3.27.58,6.08,2.17,8.75,3.24-.61.27-1.88-.18-2.92,0,2.14,2.15,7.12.46,9.56,2.27-1.56.68-4.8.27-6.64.16,2.24,2.11,7.69,1.78,12,2.1-.31.88-1.21-.34-1.46.49,7.72,2.48,18.52,2.95,28.19,3.57a23.92,23.92,0,0,0,14.26-3.24c2-1.22,3.16-3.17,5.19-3.89-1,4-4.88,5.06-7.29,7.61a82.83,82.83,0,0,1-25.44,2.92c-.8-.14.57-.51.65-.81a46.15,46.15,0,0,0-6.65-.49c.34,2.12,2.56.19,4,1.14-2.13,1.62-7.68-.37-9.56,1.13-2.33-.64-5.43-.51-8.26-.65,1.44,2.81,3.73,5,5.67,7.46a99.45,99.45,0,0,1,14.26,25.11c1.45,5.73,3.79,10.58,4.37,17.18-.71-.8-.38-2.64-1.78-2.76-1.93-4.55-3.6-10.07-5.51-15.07-.94-2.47-1.8-4.72-3.72-6,1.71,4.26,3.07,8,4.53,12.31-.21.68-.53,0-1,0,.27.6,0,3.13.32,4.22-.51.4-.5-.82-1.13-.81-.45,4,1.46,7.07,1.94,10.69.16-2-.42-4.66-.32-7.13,1.06,1,.92,2.71,1.13,4.21.5,3.47,1.58,6.85,1.63,11,0,2.29-.47,5.11-.65,7.94-.2,3.11.54,6.58-.65,8.43-1.05-2.29-.44-5.08-.65-7.78a56.83,56.83,0,0,0-2.43-13,1.89,1.89,0,0,0-.81-1.14,28.68,28.68,0,0,0-1.78-5.67A52.67,52.67,0,0,0,238.39,99c-2.35-3.3-3.21-7.34-5.18-10.37-.64-1-1.75-1.52-2.43-2.43-1.25-1.69-1.95-4-3.08-5.84A53.86,53.86,0,0,0,224.14,75c-3.12-1.1-4.31-4.12-7-5.67A97.7,97.7,0,0,1,230,88.76c4.35,12.11,9.37,26.18,11.67,41,.17,1.12,0,2.16.16,3.24.11.76.57,1.49.64,2.27a27.83,27.83,0,0,1-.32,3.24c-.09,2.4.29,4.67,0,7-.21,1.68-.66,3.34-.81,5a31.83,31.83,0,0,1,0,3.24c-.11.57-.67,1.16-.81,1.62-.58,1.95-.4,4.24-1,6.32a31.63,31.63,0,0,1-1.95,5.19c.26,1.92-1.12,2.94-1.62,4.53-.83,2.67-1.6,5.36-2.75,8.1S231.3,185,230,187c-.42.62-1.22,1-1.62,1.62-.75,1.12-1.21,2.54-1.95,3.72s-1.2,2.5-1.94,3.57c-.27.39-.86.61-1.14,1-1.11,1.49-1.87,3.23-3.07,4.7-3.41,4.16-6.34,8.83-10.38,12.64-.11-.6.53-1.1.82-1.46a136.31,136.31,0,0,0,8.1-11.18c2.8-4.43,5-9.44,8.1-14.1,4.28-6.52,6.7-15.75,9.24-24a39.4,39.4,0,0,0,2.26-11c.24-5.34.76-11.2.17-16.85-.18-1.68-.88-3.62-1.14-5.35-.49-3.3-.49-6.67-1.78-9.07-.94,2.84-1.32,7.11-3.4,8.26,4.59-19.64-6.15-36.12-14.43-48.28-3.93-4.17-7.06-9.14-12.31-12-6-6.27-14.59-9.94-22.36-14.43,6.34,6.23,13.39,12,19,19.29,2.87,3.77,5.92,7.42,7.77,11.66.53,1.22.67,2.65,1.14,3.89,1.48,3.88,4,7.83,3.4,13.13-3.6-11.09-8.85-20.53-16.53-27.55,2.27,3.73,5.07,6.93,7,11-5.93-6.87-11.64-14-18.63-19.77,3.5,5.08,8.55,10,11.83,15.88A81.19,81.19,0,0,0,175.2,60.57c-.31.47,1.08.63.81,1.62,10.62,9,20.23,19,26.9,31.92.14.73.39-.23.48.16a92.51,92.51,0,0,1,9.24,41.32c-.3.18-.34.63-.65.81a100,100,0,0,1-1.13,18.15,95.57,95.57,0,0,1-21.07,45,9.49,9.49,0,0,1,1.62-2.6,34.22,34.22,0,0,0,1.3-3.24c.43-.84,1.4-1.34,1.94-2.1.87-1.24,1.65-2.73,2.43-4a129.49,129.49,0,0,0,10.38-22.53c1.68-7.88,3.27-13.64,3.07-22.52-1.83,11.9-3.73,22.13-7.61,31.11a82.71,82.71,0,0,1-8.59,15.72c-1.33,1.85-2.94,3.4-3.73,5.83-2.46,1.43-3.43,4.35-5.83,5.83-2.26,5.9-7.9,8.42-12.15,12.32C177.57,211.9,181.37,207.88,185.08,204.62ZM151.87,17.79c-1.4-.52-2.93-1-4.38-1.46-4-1.18-8.13-2.27-11.67-2.11a103.37,103.37,0,0,1,24.31,7.46C158,19.94,155,19,151.87,17.79Zm42.77,8.26c3.1.21,7.56.08,10.86-1.13C202.12,24,197.78,25.32,194.64,26.05ZM163.21,38c9,3.93,17.49,8,26.09,11.83,3.55,1.59,7.11,3.59,11,3.89C186.39,47,172.42,40.94,157.86,35.13,158.12,36.33,161.35,37.23,163.21,38Zm-2.11,1.3c-2.21-1.84-6.36-2.6-9.72-2.76C154.64,37.48,157.66,38.62,161.1,39.34ZM205.66,39c1.88.47,4.29,1,5.84.16-3.22-.19-6.27-1.41-9.08-1.46A27.56,27.56,0,0,0,205.66,39Zm12.8,2.1a20,20,0,0,0,10.54.65C225.75,41.55,221,40.5,218.46,41.12Zm-42,13.45c3.36,2.26,6.41,4.74,9.72,7a87.7,87.7,0,0,0-11.35-10c-3.69-.3-6-2-9.39-2.59C169.38,50.78,173.12,52.31,176.5,54.57Zm54.28,12c1.68,2.19,2.72,4.92,5,6.32-1.69-4.95-6-7.31-8.26-11.66-1.19-.11-1.44-1.16-2.59-1.3C226.15,62.83,229.07,64.35,230.78,66.56Zm13.77,25.6c.65,2.17.72,4.9,2.27,6.16.32-1.82-.76-3.53-1.46-4.86-.3-2.72-1.56-4.23-2.59-6.16-2-3.73-4.39-7.65-6.48-10.85-.21,0-.23-.21-.49-.16A168,168,0,0,0,244.55,92.16ZM11.86,107.56c2.41-1,3.71-4.72,2.6-7.13C12.79,102,12.3,104.75,11.86,107.56ZM189,163.79c1.09,0,1.09-2.24,0-2.27C188.89,162.5,188.46,163,189,163.79Zm-1.78,5c.86-.32.89-1.49,1.13-2.43C187.29,166.45,186.85,167.88,187.19,168.81Zm-5,9.24c.74,0,.88-.63,1-1.3C182.39,176.75,182.09,177.21,182.17,178.05Zm-8.43,12c2.71-1.88,4.4-4.79,6-7.78,0-.13,0-.32-.17-.33C177.91,184.91,175.12,186.77,173.74,190ZM141,213.53c.24.34,1.4.23,1.29-.32C142.06,212.87,140.9,213,141,213.53Zm.16,1.14c-.23-.15-1.66-.47-1.62.16,1.26.8,4.3,0,4.7-1.62C142.83,213.3,142.31,214.29,141.17,214.67Zm-2.59,2.91c-.06.77,1.85,1.4,1.94.49C139.58,218.17,139.5,217,138.58,217.58Zm-9.08,2.6c.76.82,2.51.52,3.57.32a11.17,11.17,0,0,0,3.4-1.3C134.74,218.46,132,220.18,129.5,220.18Zm-21.06,2.91c.58.31,2,.63,2.27-.16C110,222.55,108.82,222,108.44,223.09Z"/><path class="cls-1" d="M56.59,40.64a56,56,0,0,1,18.14-8.92c.29,0,.34.16.17.17C70.33,34.11,65.42,36,61,38.53,59.55,39.33,58.18,40.46,56.59,40.64Z"/><path class="cls-1" d="M67.77,74.83a6.43,6.43,0,0,1-2.43,1.78c-2.67,1.48-5.5,3.59-8.27,5-1.41.8-2.21,2.22-3.72,2.92C57,80.1,62,77.08,67.77,74.83Z"/><path class="cls-1" d="M42.49,213.53c-.16.58-1.93-1.21-2.59-1.78C33.56,206.31,29,198,24.18,191c0-.52-.29-.69-.16-1.3-3.85-6.42-6.44-14.08-8.43-22.36,1.45,3.79,2.47,8,4.21,11.5.36.61.21-.18.65.17a121.65,121.65,0,0,0,10.7,20.25c.57.84,1.46,1.41,2.1,2.27,1.26,1.67,2,3.87,4,4.86.84,2.1,3.17,3.51,3.57,5.51C41.4,212.61,42.69,213,42.49,213.53Z"/><path class="cls-1" d="M231.26,189.39v-.33a2.52,2.52,0,0,0-1.13,1.62c-.38-.39.47-.93.32-1.62,4.59-6.1,8-13.41,10.86-21.22.31,4.27-1.62,8.06-3.24,11.34-.88,1.77-1.81,3.32-2.76,4.86-1.77,2.9-4.2,5.44-6,8.59C229.3,191.52,230.52,190.27,231.26,189.39Z"/><path class="cls-1" d="M30,169.29c4.29,5.88,5.3,14.46,10.05,20.1.18.33.17.34-.16.16C35.17,184.14,31.93,176.59,30,169.29Z"/><path class="cls-1" d="M199.34,189.71c.18,0,.11.32.33.33-.54,3-2.26,4.76-3.73,6.8-1,2.92-3.41,4.9-5.19,7.13a76.21,76.21,0,0,1-5.67,6.48c-4.33,2.74-7.71,6.44-12.15,9.08-.24-.24,1-1.64,1.46-2.11,1.67-1.59,3.79-2.9,5.67-4.54a78.63,78.63,0,0,0,9.72-10.53c1.79-2.23,3.71-4.07,4.86-6.48C196.88,194.56,197.49,191.74,199.34,189.71Z"/><path class="cls-1" d="M35,201.05c.07-.24.2.07.48,0,5.6,6.83,12.26,12.59,18.47,18.8-2.1-.66-3.68-2.5-5.34-3.89A80.31,80.31,0,0,1,35,201.05Z"/><path class="cls-1" d="M172.28,217.26s-1.17,1.5-2.1,1.62A5.31,5.31,0,0,1,172.28,217.26Z"/><path class="cls-1" d="M160.78,225c.54.15-.18.32-.16.48,1.56-.09,1.75-2,3.56-2.43-.05.33-.44.32-.49.65,1.18-1.58,3-2.48,4.54-3.73.46.37-.26.91-.32,1.3-.24-.07,0-.14,0-.33a4.7,4.7,0,0,0-1.62,2.11A98.47,98.47,0,0,1,150.08,233c-.58.05-.78.24-1.29,0C152.72,230.33,158,228.28,160.78,225Z"/><path class="cls-1" d="M97.58,240.92c.32-.73,1.38,0,2,0-.11-.17-.38-.17-.33-.49a100.13,100.13,0,0,0,20.26-1c2.13-.32,4-.25,5.83-.65,6-1.33,12.41-4.28,18.63-5.83,0,.63-.79.5-.8,1.13.32.21,1.08-.24,1.62-.32.42.52-.72.45-1.3.81s-1,1-1.3,1.13a48.21,48.21,0,0,1-6.64,1.78c-8.92,2.27-20.12,5-32.89,3.89A34.17,34.17,0,0,1,97.58,240.92Z"/><path class="cls-1" d="M66.63,205.59c3.18,2.21,6.63,4.23,10.21,6.32,1.15.67,2.26,1.51,3.4,2.11.3.15.77,0,1.14.16s.39.55.65.65c2.07.76,4.58.64,6.64,1.94a29.68,29.68,0,0,1-14.1-4.37c-1.16-.68-1.95-1.53-3.08-2.27-1.85-1.22-4.24-1.85-6.15-3.08a24.7,24.7,0,0,1-3.89-3.4c2.16.59,4.23,2.68,6.48,3.72C67.72,206.74,66.05,206,66.63,205.59Z"/><path class="cls-1" d="M49.94,222.44c.14,0,.16.07.16.17,1.28.27,1.95,1.51,3.08,1.45,5,4.18,11.21,7.26,17.67,9.89s13.33,5.31,21.39,5.67c-1.12,2-4.72.11-6.32-.16-2.17-.37-4.12-.22-6-.65-8-1.82-16-5.84-22.36-10.05A42.18,42.18,0,0,1,49.94,222.44Z"/></g></g></symbol><symbol id="sp-search" viewBox="0 0 20 20"><path d="M17.5 15.5l-3.7-3.8c.5-1 1-2 1-3.2 0-3.4-3-6.4-6.5-6.4C5 2 2 5 2 8.4s3 6.4 6.5 6.4c1 0 2.2-.3 3-1l4 4c.3.3 1 .3 1.2 0l1-1c.4-.4.2-1-.2-1.2zM4 8.3C4 6 6 4 8.3 4c2.4 0 4.5 2 4.5 4.5 0 2.3-2 4.3-4.3 4.3-2.4 0-4.5-2-4.5-4.5z"/></symbol><symbol id="sp-telegram" viewBox="0 0 496 512"><path fill="currentColor" d="M248 8C111 8 0 119 0 256s111 248 248 248 248-111 248-248S385 8 248 8zm121.8 169.9l-40.7 191.8c-3 13.6-11.1 16.9-22.4 10.5l-62-45.7-29.9 28.8c-3.3 3.3-6.1 6.1-12.5 6.1l4.4-63.1 114.9-103.8c5-4.4-1.1-6.9-7.7-2.5l-142 89.4-61.2-19.1c-13.3-4.2-13.6-13.3 2.8-19.7l239.1-92.2c11.1-4 20.8 2.7 17.2 19.5z"/></symbol><symbol id="sp-twitter" viewBox="0 0 512 512"><path fill="currentColor" d="M459.37 151.716c.325 4.548.325 9.097.325 13.645 0 138.72-105.583 298.558-298.558 298.558-59.452 0-114.68-17.219-161.137-47.106 8.447.974 16.568 1.299 25.34 1.299 49.055 0 94.213-16.568 130.274-44.832-46.132-.975-84.792-31.188-98.112-72.772 6.498.974 12.995 1.624 19.818 1.624 9.421 0 18.843-1.3 27.614-3.573-48.081-9.747-84.143-51.98-84.143-102.985v-1.299c13.969 7.797 30.214 12.67 47.431 13.319-28.264-18.843-46.781-51.005-46.781-87.391 0-19.492 5.197-37.36 14.294-52.954 51.655 63.675 129.3 105.258 216.365 109.807-1.624-7.797-2.599-15.918-2.599-24.04 0-57.828 46.782-104.934 104.934-104.934 30.213 0 57.502 12.67 76.67 33.137 23.715-4.548 46.456-13.32 66.599-25.34-7.798 24.366-24.366 44.833-46.132 57.827 21.117-2.273 41.584-8.122 60.426-16.243-14.292 20.791-32.161 39.308-52.628 54.253z"/></symbol><symbol id="sp-vk" viewBox="0 0 576 512"><path fill="currentColor" d="M545 117.7c3.7-12.5 0-21.7-17.8-21.7h-58.9c-15 0-21.9 7.9-25.6 16.7 0 0-30 73.1-72.4 120.5-13.7 13.7-20 18.1-27.5 18.1-3.7 0-9.4-4.4-9.4-16.9V117.7c0-15-4.2-21.7-16.6-21.7h-92.6c-9.4 0-15 7-15 13.5 0 14.2 21.2 17.5 23.4 57.5v86.8c0 19-3.4 22.5-10.9 22.5-20 0-68.6-73.4-97.4-157.4-5.8-16.3-11.5-22.9-26.6-22.9H38.8c-16.8 0-20.2 7.9-20.2 16.7 0 15.6 20 93.1 93.1 195.5C160.4 378.1 229 416 291.4 416c37.5 0 42.1-8.4 42.1-22.9 0-66.8-3.4-73.1 15.4-73.1 8.7 0 23.7 4.4 58.7 38.1 40 40 46.6 57.9 69 57.9h58.9c16.8 0 25.3-8.4 20.4-25-11.2-34.9-86.9-106.7-90.3-111.5-8.7-11.2-6.2-16.2 0-26.2.1-.1 72-101.3 79.4-135.6z"/></symbol><symbol id="sp-youtube" viewBox="0 0 576 512"><path fill="currentColor" d="M549.655 124.083c-6.281-23.65-24.787-42.276-48.284-48.597C458.781 64 288 64 288 64S117.22 64 74.629 75.486c-23.497 6.322-42.003 24.947-48.284 48.597-11.412 42.867-11.412 132.305-11.412 132.305s0 89.438 11.412 132.305c6.281 23.65 24.787 41.5 48.284 47.821C117.22 448 288 448 288 448s170.78 0 213.371-11.486c23.497-6.321 42.003-24.171 48.284-47.821 11.412-42.867 11.412-132.305 11.412-132.305s0-89.438-11.412-132.305zm-317.51 213.508V175.185l142.739 81.205-142.739 81.201z"/></symbol></svg>